<svg width="62" height="62" viewBox="0 0 62 62" fill="none" xmlns="http://www.w3.org/2000/svg">
<path d="M14.7213 49.8663V55.9535C14.7213 59.3045 12.5259 62 9.8418 62C7.14111 62 4.96232 59.3045 4.96232 55.9535V49.8663H0V30.0879V30.0672C0 25.7426 2.34448 22.1253 5.55051 21.039L11.2584 4.20168C12.1034 1.74218 14.0585 0 16.345 0H45.6301C47.9249 0 49.9049 1.74218 50.725 4.20168L56.4329 21.039C59.639 22.1151 62 25.7426 62 30.0672L61.9834 30.0879V49.8663H57.0128L57.0377 55.9535C57.0377 59.3045 54.8423 62 52.1582 62C49.4492 62 47.2622 59.3045 47.2622 55.9535L47.2787 49.8663H14.7213ZM10.1317 39.0035C12.8656 39.0035 15.0941 36.2469 15.0941 32.8754C15.0941 29.4833 12.8656 26.7675 10.1317 26.7675C7.38964 26.7675 5.16943 29.4833 5.16943 32.8754C5.16943 36.2469 7.38964 39.0035 10.1317 39.0035ZM56.4992 32.8754C56.4992 29.4833 54.279 26.7675 51.5369 26.7675C48.8031 26.7675 46.5746 29.4833 46.5746 32.8754C46.5746 36.2469 48.8031 39.0035 51.5369 39.0035C54.279 39.0035 56.4992 36.2469 56.4992 32.8754ZM51.5452 20.701L46.6326 6.16945C46.4337 5.45209 45.8621 4.91911 45.1828 4.91911H16.8006C16.1462 4.91911 15.5828 5.45209 15.3592 6.16945L10.4631 20.701H51.5452Z" fill="white"/>
</svg>
