<svg width="62" height="62" viewBox="0 0 62 62" fill="none" xmlns="http://www.w3.org/2000/svg">
<path d="M40.1709 23.2501C40.4925 23.3725 40.8342 23.4339 41.1784 23.4309H51.5117C52.1968 23.4309 52.8539 23.1587 53.3384 22.6743C53.8228 22.1898 54.095 21.5327 54.095 20.8476C54.095 20.1624 53.8228 19.5053 53.3384 19.0209C52.8539 18.5364 52.1968 18.2642 51.5117 18.2642H47.4042L55.9034 9.76506C56.1738 9.53347 56.3934 9.24849 56.5485 8.92798C56.7035 8.60748 56.7907 8.25839 56.8044 7.90262C56.8182 7.54684 56.7582 7.19207 56.6283 6.86056C56.4985 6.52905 56.3015 6.22797 56.0497 5.97622C55.7979 5.72446 55.4969 5.52746 55.1654 5.39758C54.8338 5.26771 54.4791 5.20776 54.1233 5.2215C53.7675 5.23524 53.4184 5.32238 53.0979 5.47744C52.7774 5.6325 52.4924 5.85213 52.2609 6.12256L43.7617 14.5959V10.4884C43.7617 9.80325 43.4895 9.14617 43.005 8.6617C42.5206 8.17723 41.8635 7.90506 41.1784 7.90506C40.4932 7.90506 39.8361 8.17723 39.3517 8.6617C38.8672 9.14617 38.595 9.80325 38.595 10.4884V20.8217C38.592 21.1659 38.6534 21.5076 38.7759 21.8292C38.9028 22.1466 39.0915 22.4356 39.331 22.6795C39.5704 22.9233 39.8559 23.1173 40.1709 23.2501ZM50.22 33.5834C49.6517 33.5834 49.0575 33.4026 48.4892 33.2734C47.3383 33.0198 46.2072 32.6831 45.105 32.2659C43.9066 31.8299 42.5892 31.8526 41.4065 32.3295C40.2237 32.8064 39.2592 33.7039 38.6984 34.8492L38.13 36.0117C35.6139 34.612 33.3017 32.8736 31.2584 30.8451C29.2298 28.8017 27.4914 26.4896 26.0917 23.9734L27.1767 23.2501C28.322 22.6893 29.2195 21.7247 29.6965 20.5419C30.1734 19.3592 30.196 18.0418 29.76 16.8434C29.3498 15.7388 29.0133 14.6083 28.7525 13.4592C28.6234 12.8909 28.52 12.2967 28.4425 11.7026C28.1288 9.88291 27.1757 8.23506 25.7549 7.05576C24.334 5.87646 22.5388 5.24322 20.6925 5.27006H12.9425C11.8292 5.25961 10.7267 5.48916 9.71002 5.9431C8.69337 6.39703 7.78647 7.06469 7.05104 7.90062C6.31562 8.73655 5.76895 9.72113 5.44824 10.7873C5.12752 11.8535 5.0403 12.9763 5.19252 14.0792C6.56876 24.9018 11.5114 34.9574 19.2398 42.6577C26.9681 50.358 37.0417 55.264 47.8692 56.6009H48.8509C50.7558 56.6037 52.5951 55.9048 54.0175 54.6376C54.8348 53.9066 55.4877 53.0105 55.933 52.0086C56.3783 51.0066 56.6059 49.9215 56.6009 48.8251V41.0751C56.5692 39.2806 55.9158 37.5528 54.7521 36.1865C53.5884 34.8202 51.9865 33.9002 50.22 33.5834ZM51.5117 49.0834C51.5112 49.4502 51.4327 49.8127 51.2812 50.1468C51.1298 50.4808 50.9089 50.7788 50.6334 51.0209C50.3447 51.2701 50.0072 51.4563 49.6424 51.5675C49.2776 51.6787 48.8936 51.7125 48.515 51.6667C38.8402 50.4262 29.8536 46.0002 22.9729 39.0867C16.0921 32.1731 11.7087 23.1657 10.5142 13.4851C10.4731 13.1067 10.5091 12.7238 10.6201 12.3597C10.7311 11.9956 10.9148 11.6578 11.16 11.3667C11.4021 11.0912 11.7001 10.8703 12.0342 10.7189C12.3682 10.5674 12.7307 10.4889 13.0975 10.4884H20.8475C21.4483 10.475 22.0349 10.6715 22.5064 11.044C22.9779 11.4165 23.3048 11.9417 23.4308 12.5292C23.5342 13.2353 23.6634 13.9328 23.8184 14.6217C24.1168 15.9835 24.5139 17.3218 25.0067 18.6259L21.39 20.3051C21.0808 20.4469 20.8026 20.6485 20.5715 20.8982C20.3404 21.1479 20.1609 21.4407 20.0433 21.76C19.9256 22.0792 19.8722 22.4186 19.8861 22.7585C19.9 23.0985 19.9809 23.4323 20.1242 23.7409C23.8421 31.7047 30.2437 38.1063 38.2075 41.8242C38.8365 42.0826 39.5419 42.0826 40.1709 41.8242C40.493 41.709 40.7891 41.5309 41.0419 41.3003C41.2947 41.0697 41.4991 40.7912 41.6434 40.4809L43.245 36.8642C44.5805 37.3418 45.9435 37.7387 47.3267 38.0526C48.0156 38.2076 48.7131 38.3367 49.4192 38.4401C50.0067 38.5661 50.5319 38.893 50.9044 39.3645C51.2769 39.836 51.4734 40.4227 51.46 41.0234L51.5117 49.0834Z" fill="white"/>
</svg>
