<svg width="63" height="63" viewBox="0 0 63 63" fill="none" xmlns="http://www.w3.org/2000/svg">
<path d="M38.9313 10.8872L39.9313 10.8907L38.9313 10.8872ZM43.9899 41.4883L44.9899 41.4918L44.9899 41.4918L43.9899 41.4883ZM31.0273 54.3594L31.0237 55.3594V55.3594L31.0273 54.3594ZM18.1561 41.3968L17.1561 41.3932L17.1561 41.3933L18.1561 41.3968ZM22.965 31.3874L22.3368 30.6093L22.965 31.3874ZM39.252 31.4451L39.8857 30.6715L39.252 31.4451ZM35.9419 7.87656L35.9384 8.87655C37.0429 8.88047 37.9352 9.77906 37.9313 10.8836L38.9313 10.8872L39.9313 10.8907C39.9391 8.68158 38.1546 6.88439 35.9454 6.87657L35.9419 7.87656ZM38.9313 10.8872L37.9313 10.8836L37.8613 30.633L38.8613 30.6365L39.8613 30.6401L39.9313 10.8907L38.9313 10.8872ZM39.252 31.4451L38.6184 32.2187C41.2996 34.4148 43.003 37.7522 42.9899 41.4848L43.9899 41.4883L44.9899 41.4918C45.0052 37.1318 43.0125 33.2326 39.8857 30.6715L39.252 31.4451ZM43.9899 41.4883L42.9899 41.4847C42.9666 48.0661 37.6122 53.3828 31.0308 53.3595L31.0273 54.3594L31.0237 55.3594C38.7096 55.3867 44.9627 49.1777 44.9899 41.4918L43.9899 41.4883ZM31.0273 54.3594L31.0308 53.3595C24.4495 53.3361 19.1328 47.9817 19.1561 41.4003L18.1561 41.3968L17.1561 41.3933C17.1289 49.0792 23.3378 55.3322 31.0237 55.3594L31.0273 54.3594ZM18.1561 41.3968L19.1561 41.4004C19.1694 37.6678 20.8965 34.3426 23.5931 32.1655L22.965 31.3874L22.3368 30.6093C19.192 33.1482 17.1716 37.0332 17.1561 41.3932L18.1561 41.3968ZM23.3614 30.5816L24.3614 30.5852L24.4314 10.8358L23.4314 10.8323L22.4314 10.8287L22.3614 30.5781L23.3614 30.5816ZM23.4314 10.8323L24.4314 10.8358C24.4353 9.73125 25.3339 8.839 26.4384 8.84291L26.442 7.84292L26.4455 6.84292C24.2364 6.8351 22.4392 8.61961 22.4314 10.8287L23.4314 10.8323ZM26.442 7.84292L26.4384 8.84291L35.9384 8.87655L35.9419 7.87656L35.9454 6.87657L26.4455 6.84292L26.442 7.84292ZM22.965 31.3874L23.5931 32.1655C24.0556 31.7921 24.3592 31.2211 24.3614 30.5852L23.3614 30.5816L22.3614 30.5781C22.3614 30.5756 22.3622 30.5771 22.3592 30.583C22.356 30.5894 22.3491 30.5994 22.3368 30.6093L22.965 31.3874ZM38.8613 30.6365L37.8613 30.633C37.8591 31.2689 38.1586 31.8421 38.6184 32.2187L39.252 31.4451L39.8857 30.6715C39.8735 30.6615 39.8667 30.6515 39.8635 30.6449C39.8606 30.639 39.8613 30.6376 39.8613 30.6401L38.8613 30.6365Z" fill="white"/>
<ellipse cx="31.073" cy="41.4429" rx="5.16667" ry="5.16667" transform="rotate(0.202907 31.073 41.4429)" fill="white"/>
</svg>
