<svg width="47" height="52" viewBox="0 0 47 52" fill="none" xmlns="http://www.w3.org/2000/svg">
<path d="M20.6667 25.5724L20.6667 38.7474C20.6667 39.4325 20.9388 40.0896 21.4233 40.5741C21.9078 41.0585 22.5649 41.3307 23.25 41.3307C23.9351 41.3307 24.5922 41.0585 25.0767 40.5741C25.5612 40.0896 25.8333 39.4325 25.8333 38.7474L25.8333 25.5724C28.9696 24.9322 31.7565 23.1503 33.6536 20.5721C35.5507 17.9939 36.423 14.8032 36.1013 11.6184C35.7795 8.43368 34.2867 5.48185 31.9123 3.33519C29.5379 1.18854 26.4509 -5.89153e-08 23.25 -5.17857e-08C20.049 -4.46561e-08 16.9621 1.18854 14.5877 3.33519C12.2133 5.48185 10.7205 8.43368 10.3987 11.6184C10.077 14.8032 10.9493 17.9939 12.8464 20.5721C14.7435 23.1503 17.5304 24.9322 20.6667 25.5724ZM34.1258 32.0824C33.7866 32.0111 33.4366 32.0074 33.0959 32.0714C32.7552 32.1354 32.4305 32.2659 32.1402 32.4554C31.85 32.6449 31.5999 32.8897 31.4042 33.1759C31.2086 33.462 31.0712 33.7839 31 34.1232C30.9288 34.4624 30.925 34.8124 30.989 35.1531C31.053 35.4938 31.1835 35.8185 31.373 36.1088C31.5625 36.399 31.8074 36.6491 32.0935 36.8448C32.3797 37.0404 32.7016 37.1778 33.0408 37.249C38.905 38.4115 41.3333 40.504 41.3333 41.3307C41.3333 42.829 35.0042 46.4974 23.25 46.4974C11.4958 46.4974 5.16667 42.829 5.16667 41.3307C5.16667 40.504 7.595 38.4115 13.4592 37.1457C13.7984 37.0744 14.1203 36.9371 14.4065 36.7414C14.6926 36.5458 14.9375 36.2957 15.127 36.0054C15.3165 35.7152 15.447 35.3904 15.511 35.0498C15.575 34.7091 15.5712 34.3591 15.5 34.0199C15.4288 33.6806 15.2914 33.3587 15.0957 33.0726C14.9001 32.7864 14.65 32.5416 14.3598 32.3521C14.0695 32.1626 13.7447 32.0321 13.4041 31.9681C13.0634 31.9041 12.7134 31.9078 12.3742 31.979C4.52083 33.7874 8.27937e-08 37.1715 9.20576e-08 41.3307C1.07191e-07 48.1249 11.7025 51.664 23.25 51.664C34.7975 51.664 46.5 48.1249 46.5 41.3307C46.5 37.1715 41.9792 33.7874 34.1258 32.0824Z" fill="white"/>
</svg>
